<svg width="113" height="33" viewBox="0 0 113 33" fill="none" xmlns="http://www.w3.org/2000/svg">
<line x1="71.5" y1="16.5" x2="111.5" y2="16.5" stroke="#FF0000" stroke-width="3" stroke-linecap="round" stroke-dasharray="5 5"/>
<path d="M3.2326 22.6264V20.0075L10.9474 7.81818H13.1314V11.5469H11.7997L6.60618 19.7766V19.9187H17.375V22.6264H3.2326ZM11.9062 26V21.8274L11.9418 20.6555V7.81818H15.049V26H11.9062ZM26.5325 26.2486C25.3488 26.2486 24.2894 26.0266 23.3542 25.5827C22.4191 25.1329 21.6763 24.5174 21.1259 23.7362C20.5814 22.9549 20.2914 22.0612 20.2559 21.055H23.4519C23.5111 21.8008 23.8336 22.4104 24.4196 22.8839C25.0055 23.3514 25.7098 23.5852 26.5325 23.5852C27.1776 23.5852 27.7517 23.4373 28.2548 23.1413C28.7579 22.8454 29.1544 22.4341 29.4444 21.9073C29.7344 21.3806 29.8765 20.7798 29.8706 20.1051C29.8765 19.4186 29.7315 18.8089 29.4355 18.2763C29.1396 17.7436 28.7342 17.3263 28.2193 17.0245C27.7044 16.7167 27.1125 16.5629 26.4437 16.5629C25.8992 16.5569 25.3636 16.6576 24.8368 16.8647C24.3101 17.0719 23.8928 17.3441 23.585 17.6815L20.611 17.1932L21.5609 7.81818H32.1078V10.5703H24.2864L23.7626 15.391H23.8691C24.2065 14.9944 24.6829 14.666 25.2985 14.4055C25.914 14.1392 26.5887 14.006 27.3226 14.006C28.4235 14.006 29.406 14.2665 30.2701 14.7873C31.1342 15.3022 31.8148 16.0124 32.312 16.918C32.8091 17.8235 33.0577 18.8593 33.0577 20.0252C33.0577 21.2267 32.7795 22.2979 32.2232 23.239C31.6728 24.1741 30.9063 24.911 29.9238 25.4496C28.9473 25.9822 27.8168 26.2486 26.5325 26.2486ZM40.1422 16.2255C39.3551 16.2255 38.6389 16.0361 37.9938 15.6573C37.3487 15.2726 36.8337 14.7577 36.449 14.1126C36.0643 13.4615 35.872 12.7424 35.872 11.9553C35.872 11.174 36.0643 10.4608 36.449 9.8157C36.8337 9.16465 37.3487 8.64974 37.9938 8.27095C38.6389 7.88625 39.3551 7.69389 40.1422 7.69389C40.9294 7.69389 41.6455 7.88625 42.2907 8.27095C42.9358 8.64974 43.4507 9.16465 43.8354 9.8157C44.2201 10.4608 44.4125 11.174 44.4125 11.9553C44.4125 12.7424 44.2201 13.4615 43.8354 14.1126C43.4507 14.7577 42.9358 15.2726 42.2907 15.6573C41.6455 16.0361 40.9294 16.2255 40.1422 16.2255ZM40.1422 13.9528C40.5092 13.9528 40.8436 13.864 41.1454 13.6864C41.4473 13.5089 41.687 13.2692 41.8645 12.9673C42.048 12.6655 42.1397 12.3281 42.1397 11.9553C42.1397 11.5883 42.048 11.2539 41.8645 10.9521C41.687 10.6502 41.4473 10.4105 41.1454 10.233C40.8436 10.0554 40.5092 9.96662 40.1422 9.96662C39.7753 9.96662 39.4409 10.0554 39.139 10.233C38.8372 10.4105 38.5945 10.6502 38.411 10.9521C38.2335 11.2539 38.1447 11.5883 38.1447 11.9553C38.1447 12.3222 38.2335 12.6596 38.411 12.9673C38.5886 13.2692 38.8283 13.5089 39.1301 13.6864C39.4379 13.864 39.7753 13.9528 40.1422 13.9528ZM62.8251 13.9528H59.5048C59.4101 13.4083 59.2355 12.9259 58.981 12.5057C58.7265 12.0795 58.4099 11.7185 58.0311 11.4226C57.6523 11.1267 57.2202 10.9047 56.7349 10.7567C56.2555 10.6029 55.7376 10.5259 55.1813 10.5259C54.1929 10.5259 53.3169 10.7745 52.5534 11.2717C51.79 11.7629 51.1922 12.485 50.7601 13.4379C50.3281 14.3848 50.112 15.5419 50.112 16.9091C50.112 18.3 50.3281 19.4718 50.7601 20.4247C51.1981 21.3717 51.7959 22.0878 52.5534 22.5732C53.3169 23.0526 54.1899 23.2923 55.1724 23.2923C55.7169 23.2923 56.2259 23.2212 56.6994 23.0792C57.1788 22.9312 57.6079 22.7152 57.9867 22.4311C58.3714 22.147 58.694 21.7978 58.9544 21.3835C59.2207 20.9692 59.4042 20.4957 59.5048 19.9631L62.8251 19.9808C62.7008 20.8449 62.4315 21.6558 62.0172 22.4134C61.6088 23.1709 61.0732 23.8397 60.4103 24.4197C59.7475 24.9938 58.9721 25.4437 58.0843 25.7692C57.1966 26.0888 56.2111 26.2486 55.128 26.2486C53.53 26.2486 52.1036 25.8787 50.8489 25.1388C49.5942 24.399 48.6058 23.3307 47.8837 21.9339C47.1616 20.5372 46.8006 18.8622 46.8006 16.9091C46.8006 14.95 47.1646 13.2751 47.8926 11.8842C48.6206 10.4875 49.6119 9.41915 50.8667 8.67933C52.1214 7.93951 53.5418 7.5696 55.128 7.5696C56.1401 7.5696 57.0811 7.71165 57.9512 7.99574C58.8212 8.27983 59.5965 8.69709 60.2772 9.24751C60.9578 9.79202 61.5171 10.4608 61.9551 11.2539C62.399 12.0411 62.689 12.9407 62.8251 13.9528Z" fill="#FF0000"/>
</svg>
