<svg width="28" height="32" viewBox="0 0 28 32" fill="none" xmlns="http://www.w3.org/2000/svg">
<circle cx="14" cy="14" r="14" fill="white"/>
<circle cx="14.0001" cy="14" r="12.963" fill="#DFE163"/>
<path d="M14 32L16.5981 27.5H11.4019L14 32Z" fill="white"/>
<path d="M14 30L16.5981 25.5H11.4019L14 30Z" fill="#DFE163"/>
<path d="M10.4844 14.994L6.97888 11.3104C5.67371 9.92682 5.67371 7.69725 6.97888 6.32249L12.8521 12.4913L10.4844 14.994ZM16.1569 13.399L14.927 14.6944L20.6832 20.7574L19.5035 22L13.7474 15.937L7.99122 22L6.81155 20.7574L14.9772 12.1564C14.3832 10.8081 14.8015 8.91338 16.1318 7.51219C17.7298 5.82018 20.0222 5.50293 21.2437 6.78956C22.4736 8.085 22.1724 10.4996 20.566 12.1828C19.2358 13.584 17.437 14.0247 16.1569 13.399Z" fill="white"/>
</svg>
