<svg width="325" height="49" viewBox="0 0 325 49" fill="none" xmlns="http://www.w3.org/2000/svg">
<path d="M16.222 48.7535C13.6431 48.7535 11.2514 48.7124 9.04686 48.6302C6.84234 48.548 3.82672 48.3631 0 48.0755V5.60881H21.4629C24.4993 5.60881 27.2238 6.04025 29.6363 6.90314C32.0903 7.72495 34.0037 8.91656 35.3763 10.478C36.749 12.0394 37.4353 13.8474 37.4353 15.9019C37.4353 18.4495 36.8737 20.4629 35.7507 21.9421C34.6276 23.3803 32.9222 24.387 30.6345 24.9623C36.4578 25.8662 39.3694 29.2562 39.3694 35.1321C39.3694 39.2 37.4769 42.4872 33.6917 44.9937C29.9482 47.5002 24.125 48.7535 16.222 48.7535ZM18.8424 22.3736C20.4646 22.3736 21.7956 21.9832 22.8355 21.2025C23.917 20.4218 24.4577 19.4151 24.4577 18.1824C24.4577 15.265 22.6275 13.8063 18.9672 13.8063H13.9134V22.3736H18.8424ZM18.5928 39.0767C20.8806 39.0767 22.6275 38.6658 23.8338 37.844C25.0816 36.9811 25.7056 35.7895 25.7056 34.2692C25.7056 32.6256 25.144 31.3723 24.021 30.5094C22.8979 29.6054 21.2965 29.1535 19.2168 29.1535H13.851V38.8918C15.7228 39.0151 17.3034 39.0767 18.5928 39.0767Z" fill="black"/>
<path d="M60.4394 48.5069C56.9455 48.5069 53.8259 47.8289 51.0806 46.473C48.377 45.117 46.2556 43.2474 44.7166 40.8641C43.2192 38.4398 42.4705 35.6662 42.4705 32.5434C42.4705 29.4205 43.24 26.6675 44.779 24.2843C46.318 21.86 48.4394 19.9904 51.143 18.6755C53.8883 17.3606 57.0079 16.7031 60.5018 16.7031C64.0374 16.7031 67.157 17.3811 69.8606 18.7371C72.6059 20.052 74.7272 21.9011 76.2246 24.2843C77.722 26.6675 78.4707 29.4205 78.4707 32.5434C78.4707 35.7073 77.7012 38.5015 76.1622 40.9258C74.6648 43.309 72.5435 45.1786 69.7982 46.5346C67.0946 47.8495 63.975 48.5069 60.4394 48.5069ZM60.5642 39.2616C62.2696 39.2616 63.663 38.6453 64.7445 37.4126C65.8675 36.1388 66.4291 34.5157 66.4291 32.5434C66.4291 30.5711 65.8675 28.9686 64.7445 27.7358C63.663 26.4621 62.2696 25.8252 60.5642 25.8252C58.8588 25.8252 57.4446 26.4621 56.3216 27.7358C55.2401 28.9686 54.6994 30.5711 54.6994 32.5434C54.6994 34.5157 55.2401 36.1388 56.3216 37.4126C57.4446 38.6453 58.8588 39.2616 60.5642 39.2616Z" fill="#FF7622"/>
<path d="M106.669 48.5069C101.886 48.5069 98.4957 46.4319 96.4991 42.2818V48.0138H83.272V7.39623L96.4991 5.48553V22.9283C97.539 20.7505 98.8908 19.1686 100.555 18.1824C102.218 17.1962 104.236 16.7031 106.607 16.7031C109.394 16.7031 111.952 17.4017 114.281 18.7987C116.652 20.1547 118.503 22.0449 119.834 24.4692C121.206 26.8935 121.893 29.6055 121.893 32.605C121.893 35.5635 121.186 38.2549 119.771 40.6792C118.399 43.1036 116.527 45.0143 114.156 46.4113C111.827 47.8084 109.331 48.5069 106.669 48.5069ZM102.676 38.7686C104.381 38.7686 105.837 38.1522 107.043 36.9195C108.25 35.6868 108.853 34.2486 108.853 32.605C108.853 30.8792 108.229 29.4205 106.981 28.2289C105.775 27.0373 104.34 26.4415 102.676 26.4415C100.971 26.4415 99.5148 27.0373 98.3085 28.2289C97.1023 29.3795 96.4991 30.756 96.4991 32.3585V32.605C96.4991 34.3308 97.1023 35.7895 98.3085 36.9811C99.5564 38.1727 101.012 38.7686 102.676 38.7686Z" fill="black"/>
<path d="M147.802 49C143.643 49 139.857 48.0344 136.447 46.1031C133.077 44.1308 130.395 41.46 128.398 38.0906C126.443 34.6801 125.466 30.9203 125.466 26.8113C125.466 22.6201 126.422 18.8398 128.336 15.4704C130.249 12.101 132.87 9.47128 136.197 7.58113C139.525 5.6499 143.268 4.68428 147.428 4.68428C149.674 4.68428 151.878 4.95136 154.041 5.48553C156.204 6.01971 158.055 6.77987 159.594 7.76604L157.91 17.3195C154.915 16.2101 152.211 15.6553 149.799 15.6553C146.471 15.6553 143.913 16.621 142.124 18.5522C140.336 20.4423 139.441 23.1748 139.441 26.7497C139.441 30.2423 140.377 32.9748 142.249 34.9472C144.162 36.8784 146.804 37.844 150.173 37.844C151.462 37.844 152.669 37.7208 153.792 37.4742C154.915 37.2277 156.287 36.7757 157.91 36.1182L159.657 45.8566C156.038 47.9522 152.086 49 147.802 49Z" fill="black"/>
<path d="M164.306 7.39623L177.47 5.48553V23.483C178.386 21.3052 179.758 19.6411 181.588 18.4906C183.46 17.299 185.706 16.7031 188.327 16.7031C192.32 16.7031 195.439 18.1208 197.686 20.956C199.973 23.7501 201.117 27.6331 201.117 32.605V48.0138H188.015V31.3107C188.015 29.5438 187.62 28.1878 186.829 27.2428C186.081 26.2977 185.02 25.8252 183.647 25.8252C182.649 25.8252 181.672 26.1539 180.715 26.8113C179.758 27.4277 178.968 28.3317 178.344 29.5233C177.762 30.7149 177.47 32.0709 177.47 33.5912V48.0138H164.306V7.39623Z" fill="black"/>
<path d="M223.299 48.5069C219.847 48.5069 216.769 47.8289 214.065 46.473C211.403 45.0759 209.323 43.1857 207.826 40.8025C206.328 38.3782 205.58 35.6457 205.58 32.605C205.58 29.4822 206.349 26.7086 207.888 24.2843C209.427 21.86 211.507 19.9904 214.127 18.6755C216.748 17.3606 219.659 16.7031 222.862 16.7031C225.94 16.7031 228.561 17.3811 230.724 18.7371C232.928 20.052 234.571 21.86 235.653 24.161C236.734 26.421 237.275 28.9686 237.275 31.8038C237.275 32.5434 237.233 33.0776 237.15 33.4063L218.432 35.8101C218.931 37.2482 219.743 38.296 220.866 38.9535C221.989 39.5698 223.465 39.878 225.295 39.878C228.124 39.878 231.181 39.1589 234.467 37.7208L236.027 45.9799C232.159 47.6646 227.916 48.5069 223.299 48.5069ZM227.604 28.044C226.938 25.4553 225.358 24.161 222.862 24.161C221.365 24.161 220.179 24.7157 219.306 25.8252C218.432 26.9346 217.975 28.3727 217.933 30.1396L227.604 28.044Z" fill="black"/>
<path d="M241.808 17.566H254.349V23.8528C255.763 21.4285 257.365 19.6411 259.153 18.4906C260.984 17.299 263.147 16.7031 265.642 16.7031C268.096 16.7031 270.218 17.3195 272.006 18.5522C273.836 19.7438 275.209 21.3669 276.124 23.4214C278.786 18.9426 282.654 16.7031 287.729 16.7031C290.142 16.7031 292.242 17.34 294.031 18.6138C295.861 19.8876 297.275 21.7367 298.273 24.161C299.272 26.5442 299.771 29.3589 299.771 32.605V48.0138H286.606V32.605C286.606 30.5094 286.232 28.9275 285.483 27.8591C284.776 26.7908 283.778 26.2566 282.488 26.2566C281.074 26.2566 279.847 26.8524 278.807 28.044C277.809 29.2356 277.31 30.6738 277.31 32.3585V48.0138H264.27V32.605C264.27 30.5094 263.895 28.9275 263.147 27.8591C262.439 26.7908 261.42 26.2566 260.089 26.2566C258.675 26.2566 257.469 26.8524 256.471 28.044C255.472 29.2356 254.973 30.6738 254.973 32.3585V48.0138H241.808V17.566Z" fill="black"/>
<path d="M316.827 48.5069C313.333 48.5069 310.608 47.3975 308.653 45.1786C306.698 42.9597 305.721 39.9396 305.721 36.1182V17.1346H318.948V35.5635C318.948 36.5086 319.198 37.2482 319.697 37.7824C320.237 38.2755 320.924 38.522 321.756 38.522C322.587 38.522 323.44 38.2755 324.314 37.7824L325 46.3497C324.085 47.0482 322.879 47.5824 321.381 47.9522C319.925 48.322 318.407 48.5069 316.827 48.5069ZM312.334 12.5119C310.379 12.5119 308.716 11.9161 307.343 10.7245C306.012 9.49182 305.346 7.99203 305.346 6.22516C305.346 4.45828 306.054 2.97904 307.468 1.78742C308.882 0.595807 310.504 0 312.334 0C314.248 0 315.891 0.616353 317.263 1.84906C318.678 3.08176 319.385 4.54046 319.385 6.22516C319.385 8.03312 318.678 9.53292 317.263 10.7245C315.849 11.9161 314.206 12.5119 312.334 12.5119Z" fill="black"/>
</svg>
